<?xml version="1.0" encoding="utf-8"?>
<!-- Generator: Adobe Illustrator 16.0.0, SVG Export Plug-In . SVG Version: 6.00 Build 0)  -->
<!DOCTYPE svg PUBLIC "-//W3C//DTD SVG 1.1//EN" "http://www.w3.org/Graphics/SVG/1.1/DTD/svg11.dtd">
<svg version="1.1" id="Layer_1" xmlns="http://www.w3.org/2000/svg" xmlns:xlink="http://www.w3.org/1999/xlink" x="0px" y="0px"
	 width="190.372px" height="154px" viewBox="0 0 190.372 154" enable-background="new 0 0 190.372 154" xml:space="preserve">
<g>
	<path fill="#252122" d="M138.563-0.25L86.754,35.514L34.946-0.25v118.224l51.809,35.887l51.809-35.887l51.809,35.887V35.514
		L138.563-0.25z M82.769,146.257l-43.838-30.368V7.343l43.838,30.263V146.257z M186.386,146.257l-43.838-30.368V7.343l43.838,30.263
		V146.257z"/>
	<path fill="#252122" d="M18.082,79.865c0-4.305-3.017-7.893-7.048-8.805V-0.246H7.048v71.307C3.016,71.972,0,75.56,0,79.865
		c0,4.305,3.016,7.894,7.048,8.803v29.306h3.986V88.668C15.065,87.759,18.082,84.17,18.082,79.865z"/>
</g>
</svg>
