<?xml version="1.0" encoding="utf-8"?>
<!-- Generator: Adobe Illustrator 16.0.0, SVG Export Plug-In . SVG Version: 6.00 Build 0)  -->
<!DOCTYPE svg PUBLIC "-//W3C//DTD SVG 1.1//EN" "http://www.w3.org/Graphics/SVG/1.1/DTD/svg11.dtd">
<svg version="1.1" id="Layer_1" xmlns="http://www.w3.org/2000/svg" xmlns:xlink="http://www.w3.org/1999/xlink" x="0px" y="0px"
	 width="198px" height="154px" viewBox="0 0 198 154" enable-background="new 0 0 198 154" xml:space="preserve">
<g>
	<path fill="#252122" d="M86.214,14.47L0.144,153.801h77.613l8.457-29.623v0.005l8.459,29.618h77.611L86.214,14.47z M90.194,123.623
		V28.486L165.15,149.82H97.674L90.194,123.623z"/>
	<path fill="#252122" d="M197.856,139.92l-61.54-99.045c1.512-1.52,2.448-3.611,2.448-5.921c0-4.635-3.763-8.396-8.396-8.396
		c-0.938,0-1.819,0.188-2.658,0.468L111.043,0.199l-3.381,2.098l16.674,26.835c-1.457,1.51-2.362,3.557-2.362,5.821
		c0,4.635,3.758,8.395,8.396,8.395c0.887,0,1.726-0.176,2.531-0.431l61.575,99.102L197.856,139.92z"/>
</g>
</svg>
