<?xml version="1.0" encoding="utf-8"?>
<!-- Generator: Adobe Illustrator 16.0.0, SVG Export Plug-In . SVG Version: 6.00 Build 0)  -->
<!DOCTYPE svg PUBLIC "-//W3C//DTD SVG 1.1//EN" "http://www.w3.org/Graphics/SVG/1.1/DTD/svg11.dtd">
<svg version="1.1" id="Layer_1" xmlns="http://www.w3.org/2000/svg" xmlns:xlink="http://www.w3.org/1999/xlink" x="0px" y="0px"
	 width="153.681px" height="154px" viewBox="0 0 153.681 154" enable-background="new 0 0 153.681 154" xml:space="preserve">
<g>
	<path fill="#252122" d="M76.84,32.981c-0.366,0-0.723,0.044-1.086,0.056c0,0,0,0.095,0,0.144
		C52.73,34.752,34.957,53.533,34.957,76.84c0,23.669,18.324,42.689,41.868,43.736c0.004,0.035,0.012,0.123,0.016,0.123
		c24.223,0,43.859-19.638,43.859-43.859S101.062,32.981,76.84,32.981z M77.824,116.598c-0.031,0-0.063-0.004-0.099-0.008l0,0
		c-21.477-0.58-38.725-18.129-38.725-39.75c0-21.617,17.248-39.172,38.725-39.75l0,0c0.035-0.002,0.067-0.008,0.099-0.008V116.598z"
		/>
	<path fill="#252122" d="M153.681,76.84C153.681,34.404,119.275,0,76.84,0C34.404,0,0,34.404,0,76.84
		c0,42.437,34.404,76.84,76.84,76.84c17.595,0,33.76-5.979,46.714-15.927c1.545,1.18,3.447,1.906,5.54,1.906
		c5.068,0,9.176-4.106,9.176-9.174c0-1.987-0.646-3.815-1.723-5.32C147.246,111.962,153.681,95.159,153.681,76.84z M4.044,76.84
		C4.044,36.7,36.7,4.043,76.84,4.043c40.142,0,72.796,32.656,72.796,72.796c0,17.271-6.07,33.135-16.156,45.633
		c-1.312-0.719-2.789-1.162-4.386-1.162c-5.065,0-9.174,4.107-9.174,9.175c0,1.497,0.393,2.888,1.027,4.134
		c-12.255,9.377-27.516,15.016-44.107,15.016C36.7,149.635,4.044,116.982,4.044,76.84z"/>
</g>
</svg>
